# xmcd
# Track frame offsets:
# 150
# 13985
# 32529
# 44891
# 58792
# 71323
# 87907
# 99687
# 114069
# 134136
# 147491
# 161941
# 176196
# 190355
# 206303
# 218465
# 230167
# 248962
# 263750
# 274736
# 294106
#
# Disc length: 4186 seconds
# Revision: 7
# Processed by: cddbd v1.5.2PL0 Copyright (c) Steve Scherf et al.
# Submitted via: VisiTrax 2.11.3.279 - For more info visit www.synapsa.com
#
DISCID=44105815
DTITLE=Various Artist - Blues - Natural Blues - Disc 1
DYEAR=2001
DGENRE=Blues
TTITLE0=Moby - Natural Blues
TTITLE1=Alabama 3 - Woke Up This Morning
TTITLE2=Hooker, John Lee - I'm In The Mood
TTITLE3=Howlin' Wolf - Smokestack Lightin'
TTITLE4=Waters, Muddy - Hoochie Coochie Man
TTITLE5=Vaughan, Stevie Ray - Pride And Joy
TTITLE6=James, Etta - I'd Rather Go Blind
TTITLE7=Fulson, Lowell - Reconsider Baby
TTITLE8=Clapton, Eric and B.B.King - Worried Life Blues
TTITLE9=Mahal, Taj - Statesboro Blues
TTITLE10=Rush, Otis - So Many Roads, So Many Trains
TTITLE11=Canned Heat - On The Road Again
TTITLE12=Williamson, Sonny Boy - Help Me
TTITLE13=Santana - Black Magic Woman
TTITLE14=Diddley, Bo - Bo Diddley
TTITLE15=Little Walter - My Babe
TTITLE16=Lang, Jonny - Good Morning Little School Girl
TTITLE17=Bland, Bobby - Stormy Monday Blues
TTITLE18=ZZ Top - She Loves My Automobile
TTITLE19=Collins, Albert - Honey Hush
TTITLE20=Hawkins, Screamin' Jay - Heart Attack and Vine
EXTD=YEAR: 2001
EXTT0=
EXTT1=
EXTT2=
EXTT3=
EXTT4=
EXTT5=
EXTT6=
EXTT7=
EXTT8=
EXTT9=
EXTT10=
EXTT11=
EXTT12=
EXTT13=
EXTT14=
EXTT15=
EXTT16=
EXTT17=
EXTT18=
EXTT19=
EXTT20=
PLAYORDER=
